<?xml version="1.0" encoding="UTF-8" standalone="no"?>
<!-- Generator: Adobe Illustrator 19.2.0, SVG Export Plug-In . SVG Version: 6.00 Build 0)  -->

<svg
   xmlns:dc="http://purl.org/dc/elements/1.1/"
   xmlns:cc="http://creativecommons.org/ns#"
   xmlns:rdf="http://www.w3.org/1999/02/22-rdf-syntax-ns#"
   xmlns:svg="http://www.w3.org/2000/svg"
   xmlns="http://www.w3.org/2000/svg"
   xmlns:xlink="http://www.w3.org/1999/xlink"
   xmlns:sodipodi="http://sodipodi.sourceforge.net/DTD/sodipodi-0.dtd"
   xmlns:inkscape="http://www.inkscape.org/namespaces/inkscape"
   version="1.1"
   id="Camada_1"
   x="0px"
   y="0px"
   viewBox="0 0 67.800001 64.699995"
   xml:space="preserve"
   sodipodi:docname="unasus.svg"
   width="67.800003"
   height="64.699997"
   inkscape:version="0.92.1 r15371"><metadata
     id="metadata35"><rdf:RDF><cc:Work
         rdf:about=""><dc:format>image/svg+xml</dc:format><dc:type
           rdf:resource="http://purl.org/dc/dcmitype/StillImage" /><dc:title></dc:title></cc:Work></rdf:RDF></metadata><defs
     id="defs33"><defs
       id="defs5"><rect
         height="132.3"
         width="186.10001"
         y="0"
         id="SVGID_1_"
         x="0" /></defs><clipPath
       id="SVGID_2_"><use
         id="use7"
         style="overflow:visible"
         xlink:href="#SVGID_1_"
         x="0"
         y="0"
         width="100%"
         height="100%" /></clipPath></defs><sodipodi:namedview
     pagecolor="#ffffff"
     bordercolor="#666666"
     borderopacity="1"
     objecttolerance="10"
     gridtolerance="10"
     guidetolerance="10"
     inkscape:pageopacity="0"
     inkscape:pageshadow="2"
     inkscape:window-width="1920"
     inkscape:window-height="1017"
     id="namedview31"
     showgrid="true"
     showguides="false"
     inkscape:zoom="1.7838246"
     inkscape:cx="87.050003"
     inkscape:cy="5.8500016"
     inkscape:window-x="-8"
     inkscape:window-y="-8"
     inkscape:window-maximized="1"
     inkscape:current-layer="Camada_1"><inkscape:grid
       type="xygrid"
       id="grid3722"
       originx="-5.9999998"
       originy="-60.299998" /></sodipodi:namedview><style
     type="text/css"
     id="style2">
	.st0{clip-path:url(#SVGID_2_);fill:#FFFFFF;}
	.st1{clip-path:url(#SVGID_2_);fill:none;stroke:#FFFFFF;stroke-width:3;}
</style><g
     id="g3733"
     style="fill:#ffffff"><path
       transform="translate(-56.9)"
       class="st0"
       d="M 90.8,64.7 C 72.1,64.7 56.9,49.5 56.9,30.8 v -0.6 h 6.9 v 0.6 c 0,14.9 12.1,26.9 26.9,26.9 14.9,0 26.9,-12.1 26.9,-26.9 v -0.6 h 6.9 v 0.6 c 0.2,18.7 -15,33.9 -33.7,33.9"
       clip-path="url(#SVGID_2_)"
       id="path10"
       style="fill:#ffffff"
       inkscape:connector-curvature="0" /><path
       transform="translate(-56.9)"
       class="st0"
       d="M 57,26.9 V 0 h 0.5 c 2,0 3.6,0.6 4.7,1.7 1.8,1.9 1.7,4.5 1.7,4.6 V 26.8 H 57 Z"
       clip-path="url(#SVGID_2_)"
       id="path12"
       style="fill:#ffffff"
       inkscape:connector-curvature="0" /><path
       transform="translate(-56.9)"
       class="st0"
       d="M 117.7,26.9 V 6.3 c 0,-0.1 -0.1,-2.7 1.7,-4.6 1.1,-1.2 2.7,-1.7 4.7,-1.7 h 0.6 v 0.5 26.4 z"
       clip-path="url(#SVGID_2_)"
       id="path14"
       style="fill:#ffffff"
       inkscape:connector-curvature="0" /><path
       transform="translate(-56.9)"
       class="st0"
       d="M 97.7,9.5 C 97.7,6.7 95.2,7 95.2,7 h -9.9 c 0,0 -1.8,0 -1.8,1.7 V 20.4 H 97.8 V 9.5 Z"
       clip-path="url(#SVGID_2_)"
       id="path16"
       style="fill:#ffffff"
       inkscape:connector-curvature="0" /><path
       transform="translate(-56.9)"
       class="st0"
       d="m 83.4,47.5 c 0,2.8 2.5,2.5 2.5,2.5 h 9.9 c 0,0 1.8,0 1.8,-1.8 V 36.6 H 83.4 Z"
       clip-path="url(#SVGID_2_)"
       id="path18"
       style="fill:#ffffff"
       inkscape:connector-curvature="0" /><path
       transform="translate(-56.9)"
       class="st0"
       d="m 69.1,22 v 8.4 c 0,4.8 3.9,4.5 3.9,4.5 H 96.5 L 83.2,22 Z"
       clip-path="url(#SVGID_2_)"
       id="path20"
       style="fill:#ffffff"
       inkscape:connector-curvature="0" /><path
       transform="translate(-56.9)"
       class="st0"
       d="m 112.2,26.5 c 0,-4.8 -3.9,-4.5 -3.9,-4.5 h -8 c 0,0 0,0 0,0 H 84.6 l 5.1,4.9 4.9,-4.9 4.6,4.6 -4.9,4.9 0.4,0.4 4.5,-4.5 0.4,0.4 -4.5,4.5 0.4,0.4 4,-4 0.4,0.4 -4,4 1.9,1.9 h 13.4 v 0 h 0.9 v -8.5 z"
       clip-path="url(#SVGID_2_)"
       id="path22"
       style="fill:#ffffff"
       inkscape:connector-curvature="0" /></g></svg>